<?xml version="1.0" encoding="utf-8"?>
<!-- Generator: Adobe Illustrator 21.1.0, SVG Export Plug-In . SVG Version: 6.00 Build 0)  -->
<svg version="1.1" id="Layer_1" xmlns="http://www.w3.org/2000/svg" xmlns:xlink="http://www.w3.org/1999/xlink" x="0px" y="0px"
	 viewBox="0 0 332.3 332.3" style="enable-background:new 0 0 332.3 332.3;" xml:space="preserve">
<style type="text/css">
	.st0{fill:#FFFFFF;}
</style>
<path class="st0" d="M303.3,3.5L166.1,140.7L29,3.5c-4.7-4.7-12.3-4.7-17,0L3.5,12c-4.7,4.7-4.7,12.3,0,17l137.2,137.2L3.5,303.3
	c-4.7,4.7-4.7,12.3,0,17l8.5,8.5c4.7,4.7,12.3,4.7,17,0l137.2-137.2l137.2,137.2c4.7,4.7,12.3,4.7,17,0l8.5-8.5
	c4.7-4.7,4.7-12.3,0-17L191.6,166.1L328.8,29c4.7-4.7,4.7-12.3,0-17l-8.5-8.5C315.6-1.2,308-1.2,303.3,3.5z"/>
</svg>
